<svg width="72" height="70" viewBox="0 0 72 70" fill="none" xmlns="http://www.w3.org/2000/svg">
<path d="M35.9903 23.3284C29.38 23.3284 23.9854 28.5732 23.9854 35C23.9854 41.4268 29.38 46.6716 35.9903 46.6716C42.6007 46.6716 47.9952 41.4268 47.9952 35C47.9952 28.5732 42.6007 23.3284 35.9903 23.3284ZM71.996 35C71.996 30.1667 72.041 25.3772 71.7618 20.5527C71.4826 14.949 70.1678 9.97559 65.953 5.87782C61.7292 1.7713 56.6229 0.501691 50.8591 0.230258C45.8878 -0.0411753 40.9616 0.0026044 35.9993 0.0026044C31.0281 0.0026044 26.1018 -0.0411753 21.1396 0.230258C15.3758 0.501691 10.2604 1.78005 6.04565 5.87782C1.82187 9.98435 0.516016 14.949 0.236832 20.5527C-0.042351 25.386 0.00267876 30.1755 0.00267876 35C0.00267876 39.8245 -0.042351 44.6228 0.236832 49.4473C0.516016 55.051 1.83088 60.0244 6.04565 64.1222C10.2694 68.2287 15.3758 69.4983 21.1396 69.7697C26.1108 70.0412 31.0371 69.9974 35.9993 69.9974C40.9706 69.9974 45.8968 70.0412 50.8591 69.7697C56.6229 69.4983 61.7382 68.2199 65.953 64.1222C70.1768 60.0157 71.4826 55.051 71.7618 49.4473C72.05 44.6228 71.996 39.8333 71.996 35V35ZM35.9903 52.9584C25.7686 52.9584 17.5192 44.938 17.5192 35C17.5192 25.062 25.7686 17.0416 35.9903 17.0416C46.212 17.0416 54.4615 25.062 54.4615 35C54.4615 44.938 46.212 52.9584 35.9903 52.9584ZM55.218 20.5002C52.8314 20.5002 50.9041 18.6264 50.9041 16.3061C50.9041 13.9858 52.8314 12.112 55.218 12.112C57.6045 12.112 59.5318 13.9858 59.5318 16.3061C59.5325 16.8571 59.4214 17.4028 59.2049 17.9119C58.9883 18.4211 58.6706 18.8837 58.2699 19.2733C57.8692 19.6629 57.3933 19.9718 56.8696 20.1824C56.3459 20.3929 55.7847 20.5009 55.218 20.5002V20.5002Z" fill="white"/>
</svg>
