<svg width="72" height="70" viewBox="0 0 72 70" fill="none" xmlns="http://www.w3.org/2000/svg">
<path d="M72 8.30328C69.3522 9.70642 66.5079 10.6545 63.5177 11.083C66.603 8.87513 68.9113 5.40016 70.0118 1.30651C67.113 3.36568 63.9405 4.81512 60.6321 5.5918C58.4073 2.75086 55.4604 0.867844 52.2491 0.235093C49.0377 -0.397658 45.7415 0.255258 42.8722 2.09247C40.003 3.92969 37.7211 6.84841 36.381 10.3955C35.0409 13.9426 34.7175 17.9196 35.4609 21.709C29.5873 21.3563 23.8413 19.5305 18.5959 16.3501C13.3505 13.1698 8.72283 8.70587 5.0133 3.24816C3.74491 5.86484 3.01559 8.89867 3.01559 12.1297C3.01418 15.0384 3.6131 17.9025 4.75924 20.4679C5.90537 23.0334 7.56327 25.2208 9.58584 26.8362C7.2402 26.7469 4.94631 25.9889 2.89509 24.6253V24.8528C2.89486 28.9323 4.0748 32.8863 6.2347 36.0438C8.39461 39.2014 11.4014 41.368 14.745 42.176C12.569 42.8803 10.2877 42.984 8.07328 42.4794C9.01664 45.9895 10.8542 49.0591 13.3287 51.2582C15.8033 53.4574 18.7909 54.676 21.8733 54.7436C16.6407 59.6562 10.1784 62.3209 3.52612 62.3092C2.34772 62.3096 1.17033 62.2273 0 62.0627C6.7525 67.255 14.6129 70.0107 22.6407 70C49.8159 70 64.6719 43.0823 64.6719 19.737C64.6719 18.9786 64.656 18.2125 64.6275 17.4541C67.5172 14.9548 70.0115 11.86 71.9937 8.31466L72 8.30328V8.30328Z" fill="white"/>
</svg>
