<svg width="26" height="27" viewBox="0 0 26 27" fill="none" xmlns="http://www.w3.org/2000/svg">
<path d="M19.2046 8.44529C18.3307 8.53921 17.5745 9.5262 17.4471 10.9305C17.3632 11.8526 17.7658 12.8642 17.215 13.3119C17.0047 13.483 16.7972 13.4146 16.6144 13.2493C16.3475 12.9465 16.0567 12.408 15.757 11.5931L13.5542 4.58829C13.3903 4.05053 12.8676 3.74005 12.1611 3.94829C11.4547 4.15654 11.164 4.72967 11.3274 5.26772L13.344 11.6078C13.8131 12.9943 13.2221 13.0344 12.5206 11.5623L12.5204 11.5618L9.06372 4.75873C8.79794 4.23204 8.16512 4.0416 7.57265 4.35409C6.98019 4.66658 6.76313 5.25562 7.0276 5.78239L10.5931 12.7356C11.3088 14.1417 10.5236 13.9096 9.84702 12.9823L5.90679 7.96652C5.52894 7.49715 4.8398 7.41986 4.31369 7.84728C3.78786 8.2752 3.7143 8.95681 4.09216 9.42618L7.73084 13.9883C9.13124 15.7236 9.04558 16.4774 7.20634 14.777L4.64951 12.204C4.23704 11.7922 3.58207 11.7671 3.0765 12.2848C2.57093 12.8026 2.59108 13.4381 3.00305 13.8502L5.43638 16.2512C6.95099 18.1168 7.41923 18.9278 8.23611 20.3427C9.05299 21.7576 12.2338 25.7641 17.2113 22.8903C22.1889 20.0166 20.2934 14.3693 20.156 14.0219C20.156 14.0219 19.7873 13.2401 19.9049 12.2414C20.0724 10.8214 20.2466 9.92306 20.355 9.38329C20.4104 9.11009 20.1733 8.34099 19.2046 8.44529Z" fill="#FFDC5D"/>
<path d="M17.0492 13.4008C16.8625 13.4266 16.6431 13.3423 16.4292 13.0067C15.5509 13.6879 14.4153 14.6997 13.9833 16.2435C13.4222 18.247 13.9885 19.7353 14.5249 20.6401C14.9575 21.3695 15.559 21.486 15.0482 20.3299C14.4023 18.8701 13.8287 15.5613 17.0492 13.4008Z" fill="#EF9645"/>
</svg>
