<svg width="108" height="73" viewBox="0 0 108 73" fill="none" xmlns="http://www.w3.org/2000/svg">
<path d="M105.739 11.3023C105.127 9.12113 103.936 7.14641 102.292 5.58806C100.602 3.9818 98.5296 2.83279 96.2718 2.24951C87.822 0.0223115 53.9685 0.022312 53.9685 0.022312C39.8554 -0.13826 25.7457 0.567974 11.7192 2.13703C9.46136 2.7634 7.39332 3.93808 5.69901 5.55657C4.03423 7.15835 2.8284 9.13359 2.19848 11.2978C0.685303 19.4495 -0.0499019 27.7266 0.00277695 36.0175C-0.0512158 44.3009 0.682185 52.5752 2.19848 60.7371C2.8149 62.8924 4.01624 64.8586 5.68551 66.4469C7.35479 68.0352 9.43351 69.1825 11.7192 69.7899C20.2815 72.0126 53.9685 72.0126 53.9685 72.0126C68.0996 72.1734 82.2272 71.4672 96.2718 69.8979C98.5296 69.3146 100.602 68.1656 102.292 66.5594C103.935 65.0013 105.125 63.0263 105.734 60.8451C107.287 52.6965 108.042 44.416 107.988 36.121C108.105 27.7908 107.351 19.4712 105.739 11.2978V11.3023ZM43.206 51.4234V20.616L71.3722 36.022L43.206 51.4234Z" fill="white"/>
</svg>
